<svg width="115" height="21" viewBox="0 0 115 21" fill="none" xmlns="http://www.w3.org/2000/svg">
<path fill-rule="evenodd" clip-rule="evenodd" d="M23.6398 0.514295C25.0634 0.514295 26.3868 0.775179 27.6501 1.27689C28.9133 1.81873 29.9761 2.52111 30.8985 3.4041C31.8208 4.30717 32.5627 5.37078 33.084 6.57487C33.6254 7.77896 33.8661 9.10346 33.8661 10.4882C33.8661 11.8728 33.6054 13.1773 33.084 14.4014C32.5427 15.6055 31.8208 16.6691 30.8985 17.5722C29.9761 18.4752 28.9133 19.1776 27.6501 19.6793C26.3868 20.2211 25.0634 20.462 23.6398 20.462H16.0001V0.514282L23.6398 0.514295ZM26.1662 16.207C26.9282 15.906 27.5698 15.4444 28.1112 14.8825C28.6526 14.3206 29.0336 13.6383 29.3544 12.8958C29.6552 12.1332 29.7955 11.3505 29.7955 10.4876C29.7955 9.62466 29.6552 8.8019 29.3544 8.03932C29.0536 7.27669 28.6526 6.63455 28.1112 6.07264C27.5698 5.51073 26.9282 5.06923 26.1662 4.72805C25.4042 4.42704 24.562 4.24642 23.6397 4.24642H20.0705V16.7087H23.6397C24.562 16.7087 25.4042 16.5482 26.1662 16.207V16.207Z" fill="#1A1A1A"/>
<path d="M61.8196 0.515015V20.4427H57.7491V0.515015H61.8196Z" fill="#1A1A1A"/>
<path d="M80.7876 12.6382C80.1864 14.9259 78.5418 16.8726 75.2936 16.8726C71.0429 16.8726 69.6992 13.5814 69.6992 10.4909C69.6992 7.40042 71.0629 4.10925 75.2936 4.10925C78.5418 4.10925 80.1864 6.03576 80.7876 8.34361H84.9584C84.1361 3.447 80.5272 0.175903 75.4542 0.175903C69.6792 0.175903 65.4685 4.41028 65.4685 10.4909C65.4685 16.5515 69.6593 20.8059 75.4542 20.8059C80.5272 20.8059 84.1361 17.5549 84.9584 12.6583H80.7876V12.6382Z" fill="#1A1A1A"/>
<path d="M114.073 0.515015V20.4427H110.002V0.515015H114.073Z" fill="#1A1A1A"/>
<path d="M92.438 0.515015V8.60248H101.381V0.515015H105.471V20.4427H101.401V12.1746H92.438V20.4427H88.3675V0.515015H92.438Z" fill="#1A1A1A"/>
<path fill-rule="evenodd" clip-rule="evenodd" d="M6.09571 0.175903C2.72701 0.175903 0 2.90517 0 6.2766C0 9.64805 2.72702 12.3773 6.09571 12.3773C9.46434 12.3773 12.1914 9.64805 12.1914 6.2766C12.1713 2.90517 9.44428 0.175903 6.09571 0.175903ZM6.0959 8.76391C4.71233 8.76391 3.58943 7.64009 3.58943 6.25538C3.58943 4.87067 4.71233 3.74687 6.0959 3.74687C7.47943 3.74687 8.60234 4.87068 8.60234 6.25538C8.58228 7.64009 7.45941 8.76391 6.0959 8.76391Z" fill="#1A1A1A"/>
<path fill-rule="evenodd" clip-rule="evenodd" d="M50.2892 20.4419H54.6002L47.8228 0.514282H45.6172H43.7724H41.5667L34.7091 20.4419H39.0202L40.3636 16.348H48.946L50.2892 20.4419ZM41.527 12.8554L44.6752 3.32304L47.8032 12.8554H41.527Z" fill="#1A1A1A"/>
</svg>
