<svg width="89" height="27" viewBox="0 0 89 27" fill="none" xmlns="http://www.w3.org/2000/svg">
<path d="M83.6539 0.5H4.87655C2.22366 0.5 0.0730591 2.59775 0.0730591 5.18545V21.7963C0.0730591 24.384 2.22366 26.4818 4.87655 26.4818H83.6539C86.3068 26.4818 88.4574 24.384 88.4574 21.7963V5.18545C88.4574 2.59775 86.3068 0.5 83.6539 0.5Z" fill="url(#paint0_linear_62_1502)"/>
<path d="M12.1943 18.8702V7.05957H14.4654L18.1468 12.6437L21.8292 7.05957H24.0916V18.8702H21.9636V10.4035L18.1468 15.9711H18.0795L14.2886 10.4364V18.8702H12.1943Z" fill="white"/>
<path d="M26.3463 16.2761C26.3463 15.3206 26.6835 14.5959 27.3589 14.1017C28.04 13.602 28.9354 13.3522 30.044 13.3522C30.9394 13.3522 31.781 13.4758 32.5687 13.7229V13.5582C32.5687 12.9377 32.3747 12.4655 31.9865 12.1416C31.6032 11.8121 31.0489 11.6473 30.3226 11.6473C29.5012 11.6473 28.6318 11.834 27.7144 12.2074L27.1399 10.5684C27.7028 10.3214 28.2485 10.1374 28.7778 10.0166C29.3129 9.89029 29.9259 9.82715 30.6185 9.82715C31.9472 9.82715 32.9463 10.1539 33.6159 10.8072C34.2913 11.4551 34.6294 12.3831 34.6294 13.591V18.8704H32.5524V17.7751C31.8146 18.6316 30.8299 19.0599 29.5964 19.0599C29.0055 19.0599 28.4685 18.9583 27.9843 18.7552C27.5001 18.5465 27.1062 18.2281 26.8017 17.7997C26.4981 17.3715 26.3463 16.8636 26.3463 16.2761ZM28.4233 16.202C28.4233 16.6083 28.5895 16.9294 28.921 17.1656C29.2534 17.4016 29.6751 17.5197 30.1881 17.5197C30.8856 17.5197 31.463 17.3467 31.9183 17.0008C32.3747 16.6494 32.6024 16.1992 32.6024 15.6501V15.1395C31.9952 14.9033 31.2968 14.7853 30.509 14.7853C29.85 14.7853 29.3379 14.9089 28.9719 15.1559C28.6059 15.403 28.4233 15.7517 28.4233 16.202Z" fill="white"/>
<path d="M37.1203 21.5717V9.96698H39.205V11.4496C40.0159 10.3349 41.0486 9.77759 42.3043 9.77759C42.8499 9.77759 43.3764 9.8819 43.8836 10.0906C44.3899 10.2992 44.8434 10.5957 45.243 10.9801C45.6427 11.3645 45.9607 11.8559 46.197 12.4543C46.4391 13.0528 46.5602 13.7117 46.5602 14.431C46.5602 15.1448 46.4391 15.7982 46.197 16.3912C45.9607 16.9842 45.6427 17.4729 45.243 17.8573C44.8482 18.2416 44.3986 18.5381 43.8913 18.7468C43.385 18.9554 42.8557 19.0598 42.3043 19.0598C41.0544 19.0598 40.0216 18.5354 39.205 17.4867V21.5717H37.1203ZM39.1551 14.431C39.1551 15.2656 39.4164 15.9492 39.94 16.4818C40.4636 17.0144 41.0909 17.2807 41.8229 17.2807C42.5608 17.2807 43.1795 17.0199 43.6809 16.4983C44.1815 15.9712 44.4322 15.2711 44.4322 14.3981C44.4322 13.558 44.1786 12.8744 43.6723 12.3473C43.165 11.8146 42.5492 11.5483 41.8229 11.5483C41.0909 11.5483 40.4636 11.8174 39.94 12.3555C39.4164 12.8936 39.1551 13.5855 39.1551 14.431Z" fill="white"/>
<path d="M48.7044 18.8702V9.96692H50.7728V14.2333L54.7501 9.96692H57.2075L53.6606 13.7062L57.5025 18.8702H55.0287L52.2676 15.1969L50.7728 16.7289V18.8702H48.7044Z" fill="white"/>
<path d="M58.4488 14.4145C58.4488 13.569 58.6371 12.7947 59.0146 12.0919C59.3912 11.3837 59.9235 10.8209 60.6104 10.4036C61.2973 9.98619 62.0649 9.77759 62.9151 9.77759C63.4838 9.77759 64.0074 9.86269 64.4858 10.033C64.9642 10.1976 65.3725 10.4282 65.7098 10.7247C66.0537 11.0212 66.3429 11.3726 66.5802 11.7789C66.8222 12.1798 66.999 12.6163 67.1114 13.0885C67.2296 13.5607 67.2891 14.0549 67.2891 14.571C67.2891 14.8181 67.2776 15.0075 67.2555 15.1393H60.5422C60.6555 15.8531 60.9476 16.4104 61.4202 16.8112C61.8987 17.2066 62.4818 17.4043 63.1687 17.4043C63.6635 17.4043 64.1054 17.3191 64.4945 17.1489C64.8826 16.9732 65.265 16.7042 65.6425 16.3418L66.8751 17.4043C65.9297 18.5189 64.6828 19.0762 63.1351 19.0762C62.257 19.0762 61.4625 18.8841 60.7535 18.4997C60.0445 18.1154 59.4815 17.5662 59.0646 16.8524C58.6544 16.1387 58.4488 15.326 58.4488 14.4145ZM60.5258 13.7969H65.2121C65.1391 13.105 64.8999 12.5422 64.4945 12.1084C64.0948 11.6691 63.5626 11.4496 62.8988 11.4496C62.2676 11.4496 61.7382 11.6664 61.3107 12.1002C60.889 12.5284 60.6267 13.0941 60.5258 13.7969Z" fill="white"/>
<path d="M68.4036 11.7212V9.96692H76.3909V11.7212H73.453V18.8702H71.3424V11.7212H68.4036Z" fill="white"/>
<defs>
<linearGradient id="paint0_linear_62_1502" x1="4.87655" y1="5.654" x2="87.2602" y2="26.2777" gradientUnits="userSpaceOnUse">
<stop stop-color="#7BBAFF"/>
<stop offset="1" stop-color="#FAA676" stop-opacity="0.8"/>
</linearGradient>
</defs>
</svg>
